<svg xmlns="http://www.w3.org/2000/svg" xmlns:xlink="http://www.w3.org/1999/xlink" viewBox="0 0 94.43 93.01"><defs><style>.cls-1{mask:url(#mask);filter:url(#luminosity-noclip-2);}.cls-2{mix-blend-mode:multiply;fill:url(#radial-gradient);}.cls-3{fill:#d00;}.cls-4{fill:#ffce00;}.cls-5{fill:#1c1c1c;}.cls-6{fill:none;stroke:#000;stroke-width:0.25px;}.cls-7{mask:url(#mask-2);}.cls-8{fill:url(#radial-gradient-2);}.cls-9{filter:url(#luminosity-noclip);}</style><filter id="luminosity-noclip" x="0" y="-8127.79" width="94.43" height="32766" filterUnits="userSpaceOnUse" color-interpolation-filters="sRGB"><feFlood flood-color="#fff" result="bg"/><feBlend in="SourceGraphic" in2="bg"/></filter><mask id="mask" x="0" y="-8127.79" width="94.43" height="32766" maskUnits="userSpaceOnUse"><g class="cls-9"/></mask><radialGradient id="radial-gradient" cx="3357.11" cy="-12346.08" r="54.92" gradientTransform="matrix(1.06, 0, 0, -0.96, -3516.77, -11857.44)" gradientUnits="userSpaceOnUse"><stop offset="0" stop-color="#9b9b9b"/><stop offset="0.51"/><stop offset="1"/></radialGradient><filter id="luminosity-noclip-2" x="0" y="0" width="94.43" height="93.01" filterUnits="userSpaceOnUse" color-interpolation-filters="sRGB"><feFlood flood-color="#fff" result="bg"/><feBlend in="SourceGraphic" in2="bg"/></filter><mask id="mask-2" x="0" y="0" width="94.43" height="93.01" maskUnits="userSpaceOnUse"><g class="cls-1"><path id="path31162" class="cls-2" d="M93.44,36.79C98.72,61.9,82.3,86.61,56.77,92S6.27,81.34,1,56.23,12.12,6.4,37.65,1,88.16,11.68,93.44,36.79Z"/></g></mask><radialGradient id="radial-gradient-2" cx="3357.11" cy="-12346.08" r="54.92" gradientTransform="matrix(1.06, 0, 0, -0.96, -3516.77, -11857.44)" gradientUnits="userSpaceOnUse"><stop offset="0" stop-color="#fff"/><stop offset="0.51" stop-color="#fff"/><stop offset="1" stop-color="#fff"/></radialGradient></defs><g id="Layer_2" data-name="Layer 2"><g id="svg10422"><path id="path30124" class="cls-3" d="M93.44,36.79C98.72,61.9,82.3,86.61,56.77,92S6.27,81.34,1,56.23,12.12,6.4,37.65,1,88.16,11.68,93.44,36.79Z"/><path id="path31130" class="cls-4" d="M2.57,61.93c7.6,21.78,30.66,35,54.2,30.05A47.39,47.39,0,0,0,91.65,61.93Q47.6,75.51,2.57,61.93Z"/><path id="path31132" class="cls-5" d="M47.17,0a48.58,48.58,0,0,0-9.52,1A47.38,47.38,0,0,0,3,30.61C33,22,62.6,21.69,91.68,30.61A46.81,46.81,0,0,0,47.17,0Z"/><path id="path31134" class="cls-6" d="M50.41,33a151.42,151.42,0,0,0-8.29,19.77C45.48,56.33,47.25,59,57.69,66.2A72.53,72.53,0,0,0,74.82,54.93a61.52,61.52,0,0,0-4.4-19.75,75.37,75.37,0,0,0-20-2.14Z"/><path id="path31136" class="cls-6" d="M53.22,81.67A38.92,38.92,0,0,0,57.68,66.2"/><path id="path31138" class="cls-6" d="M74.74,54.93a38.29,38.29,0,0,1,10.77,5.93"/><path id="path31140" class="cls-6" d="M70.36,35.27c2.31-3.54,5.15-5.78,6.92-12.73"/><path id="path31142" class="cls-6" d="M50.52,33.09A126,126,0,0,0,39.09,18.3"/><path id="path31144" class="cls-6" d="M12,40.88c2.1-8.76,5-14.86,8.32-18.53"/><path id="path31146" class="cls-6" d="M19.46,72c2.69,4.26,6.2,9.16,14.72,12.57"/><path id="path31148" class="cls-6" d="M47,6.34C52.19,5,58.18,4.59,66.37,8.29"/><path id="path31150" class="cls-6" d="M64,87A35.34,35.34,0,0,0,81.2,75.83"/><path id="path31152" class="cls-6" d="M87.78,28.13C91.4,34.32,93,40.91,92.72,49.25"/><path id="path31154" class="cls-6" d="M22.48,55.57C30.19,55.31,36,54,42.13,52.81"/><path id="path31156" class="cls-6" d="M12,40.85c2.57,6.55,6.55,10.56,10.46,14.72-1.33,5-3.11,9.42-3,16.43-3.84-.39-7.6-1.18-11-3.52C2.78,60.23,2.77,54,3.3,47.87,5.73,44.32,8.87,42.57,12,40.85Z"/><path id="path31158" class="cls-6" d="M20.29,22.41c5.7-3.33,12.1-4.21,18.79-4.11,1.61-3,1-3.84,7.9-12-.25-.64-4.35-3.6-11.76-3.26-6.74,1.5-12.64,4.36-16.93,9.8C17.5,14.6,18.51,18.12,20.29,22.41Z"/><path id="path31160" d="M36.43,1.31l-.17.05L36,1.42a3.48,3.48,0,0,0-.51.7,3.44,3.44,0,0,0-.38.92.11.11,0,0,0,.09.13.11.11,0,0,0,.13-.08,3.36,3.36,0,0,1,.35-.87A3.21,3.21,0,0,1,36.43,1.31ZM71.06,6.22a8.24,8.24,0,0,0-4.77,2l-.1.09.11.08C73.3,13.26,76,18,77.11,22.67l0,.08h.09c3.45-.26,6.94,1.34,10.48,5.46l.06.07.08-.05a1.46,1.46,0,0,0,.34-.45,7.56,7.56,0,0,0,.37-.79,19.23,19.23,0,0,0,.67-2l-.15-.28a16.88,16.88,0,0,1-.72,2.18c-.13.31-.25.58-.36.78a1.4,1.4,0,0,1-.22.29c-3.51-4-7-5.67-10.48-5.44-1.17-4.67-3.85-9.39-10.74-14.24A7.94,7.94,0,0,1,71.4,6.42l-.34-.2ZM18.25,12.74h0a15.24,15.24,0,0,0-4.9,1.59l-.41.43A16.22,16.22,0,0,1,18.28,13a.11.11,0,0,0,.1-.12.12.12,0,0,0-.12-.1ZM.38,40.93s0,0,0,0c0,.18,0,.37-.07.55v0a24.27,24.27,0,0,0,1.19,3.7A6.15,6.15,0,0,0,3.24,48a.1.1,0,0,0,.15,0,.1.1,0,0,0,0-.15,6.54,6.54,0,0,1-1.66-2.6A25.3,25.3,0,0,1,.38,40.93Zm92.27,8.14,0,.13c-1.21,4.36-3.16,8.39-7.16,11.58l-.06,0,0,.06c1.39,6.66-1.68,10.61-4.31,14.9l-.06.11.11,0a5.45,5.45,0,0,0,2.21.25l.2-.24a5.93,5.93,0,0,1-2.2-.17C84,71.55,87,67.53,85.63,60.9a21.36,21.36,0,0,0,7.14-11.46,4.06,4.06,0,0,1,.69.84,10.39,10.39,0,0,1,.66,1.27s0-.08,0-.12a.37.37,0,0,0,0-.11l0-.2h0c-.15-.31-.34-.64-.53-1a3.53,3.53,0,0,0-.86-1l-.13-.07ZM8.43,68.37l-.07,0a4.27,4.27,0,0,0-.71,1.31,15.32,15.32,0,0,0-.53,1.62l.16.24a15.93,15.93,0,0,1,.57-1.78,4.46,4.46,0,0,1,.66-1.24.11.11,0,0,0-.07-.19ZM53.25,81.54l-.06,0c-6.81,2.2-13.64,4.48-19.1,2.86l-.18,0,0,.18,1.93,7.18.24,0-1.91-7.1c5.51,1.54,12.27-.72,19-2.89A17.14,17.14,0,0,0,63.88,87l-5.09,4.5.47-.12L64.2,87l.18-.15-.24,0A17.06,17.06,0,0,1,53.3,81.59Z"/><g class="cls-7"><path id="path31162-2" data-name="path31162" class="cls-8" d="M93.44,36.79C98.72,61.9,82.3,86.61,56.77,92S6.27,81.34,1,56.23,12.12,6.4,37.65,1,88.16,11.68,93.44,36.79Z"/></g></g></g></svg>