<svg xmlns="http://www.w3.org/2000/svg" xmlns:xlink="http://www.w3.org/1999/xlink" viewBox="0 0 94.43 93.01"><defs><style>.cls-1{mask:url(#mask);filter:url(#luminosity-noclip-2);}.cls-2{mix-blend-mode:multiply;fill:url(#radial-gradient);}.cls-3{fill:#009c3b;}.cls-4{fill:#ffdf00;}.cls-5{fill:#002776;}.cls-6{fill:#fff;}.cls-7{fill:#009b3a;}.cls-8{fill:#009f3c;}.cls-9{fill:#00a840;}.cls-10{fill:none;stroke:#000;stroke-width:0.25px;}.cls-11{mask:url(#mask-2);}.cls-12{fill:url(#radial-gradient-2);}.cls-13{filter:url(#luminosity-noclip);}</style><filter id="luminosity-noclip" x="0" y="-7910.14" width="94.43" height="32766" filterUnits="userSpaceOnUse" color-interpolation-filters="sRGB"><feFlood flood-color="#fff" result="bg"/><feBlend in="SourceGraphic" in2="bg"/></filter><mask id="mask" x="0" y="-7910.14" width="94.43" height="32766" maskUnits="userSpaceOnUse"><g class="cls-13"/></mask><radialGradient id="radial-gradient" cx="4765.97" cy="-12789.7" r="54.92" gradientTransform="matrix(1.06, 0, 0, -0.96, -5005.09, -12284.74)" gradientUnits="userSpaceOnUse"><stop offset="0" stop-color="#afafaf"/><stop offset="0.41"/><stop offset="1"/></radialGradient><filter id="luminosity-noclip-2" x="0" y="0" width="94.43" height="93.01" filterUnits="userSpaceOnUse" color-interpolation-filters="sRGB"><feFlood flood-color="#fff" result="bg"/><feBlend in="SourceGraphic" in2="bg"/></filter><mask id="mask-2" x="0" y="0" width="94.43" height="93.01" maskUnits="userSpaceOnUse"><g class="cls-1"><path id="path10159" class="cls-2" d="M93.44,36.79C98.72,61.9,82.3,86.61,56.77,92S6.27,81.34,1,56.22,12.12,6.4,37.65,1,88.16,11.68,93.44,36.79Z"/></g></mask><radialGradient id="radial-gradient-2" cx="4765.97" cy="-12789.7" r="54.92" gradientTransform="matrix(1.06, 0, 0, -0.96, -5005.09, -12284.74)" gradientUnits="userSpaceOnUse"><stop offset="0" stop-color="#fff"/><stop offset="0.41" stop-color="#fff"/><stop offset="1" stop-color="#fff"/></radialGradient></defs><g id="Layer_2" data-name="Layer 2"><g id="svg10422"><path id="path10157" class="cls-3" d="M93.44,36.79C98.72,61.9,82.3,86.61,56.77,92S6.27,81.34,1,56.22,12.12,6.4,37.65,1,88.16,11.68,93.44,36.79Z"/><g id="g11459"><path id="path10982" class="cls-4" d="M10.32,46.86c9.16-11.52,19.83-21.24,36.74-23.57C65.24,27,75.7,36.22,84.11,46.86c-8.26,11.82-19,21.3-37,23.89C31.38,68.42,18.76,61.07,10.32,46.86Z"/><g id="g11367"><path id="path10984" class="cls-5" d="M62.76,47A15.55,15.55,0,1,1,47.21,31.47,15.55,15.55,0,0,1,62.76,47Z"/><path id="path10986" class="cls-6" d="M37.89,40.42a46.31,46.31,0,0,0-4.9.3,16.06,16.06,0,0,0-.82,2.36C48.52,41.72,56,46.84,62,51.87a15.13,15.13,0,0,0,.61-2.6c-5.26-5-13.9-8.91-24.71-8.85Z"/><path id="path11002" class="cls-6" d="M47.73,50.07l-.35-.15-.33.21,0-.38-.3-.24.37-.09.14-.36.2.33.38,0-.25.29Z"/><path id="path11015" class="cls-6" d="M44.6,56.91l-.68-.18-.54.47,0-.71-.61-.37.66-.26.17-.69.45.55.7-.06-.38.6Z"/><path id="path11017" class="cls-6" d="M47.71,54.49l-.39-.16-.36.23,0-.42-.32-.27.41-.1.15-.39.22.36.42,0-.27.32Z"/><path id="path11019" class="cls-6" d="M41.51,55.89l-.43-.18-.4.26,0-.47-.36-.3.45-.1.17-.44.25.4.47,0-.31.36Z"/><path id="path11021" class="cls-6" d="M39.44,52.65l-.36-.15-.32.21,0-.38-.3-.25.38-.09.13-.36.21.33.38,0-.25.3Z"/><path id="path11023" class="cls-6" d="M36.32,51.44l-.53-.22-.48.32,0-.58-.44-.36.55-.13.21-.54.3.49.57,0-.37.44Z"/><path id="path11025" class="cls-6" d="M52.75,42.6l-.53-.22-.48.31,0-.57-.44-.36.55-.13.21-.54.3.49.57,0-.37.44Z"/><path id="path11027" class="cls-6" d="M51.82,46.88l-.4-.16-.36.23,0-.43-.34-.26.42-.1.15-.4.23.36.42,0-.27.33Z"/><path id="path11029" class="cls-6" d="M41.93,48.25l-.4-.16-.36.23,0-.43-.33-.27.41-.1.15-.4.23.37.42,0-.27.33Z"/><path id="path11031" class="cls-6" d="M34.31,52.59,34,52.45l-.31.2,0-.37-.28-.23.35-.08.13-.34.19.31.37,0-.24.28Z"/><path id="path11033" class="cls-6" d="M35,44.71l-.39-.16-.34.22,0-.41L34,44.1l.4-.1.15-.39.22.36.41,0-.27.31Z"/><path id="path11035" class="cls-6" d="M37.82,50.18,37.5,50l-.29.19,0-.34L37,49.67l.34-.08.12-.33.18.3.35,0-.23.26Z"/><path id="path11037" class="cls-6" d="M46.07,51.39l-.32-.13-.29.19,0-.35-.27-.22.34-.08.13-.32.18.29.35,0-.23.27Z"/><path id="path11039" class="cls-6" d="M46.67,52.28l-.18-.07-.16.1,0-.19L46.2,52l.18,0,.07-.18.1.16h.2l-.13.15Z"/><path id="path11041" class="cls-6" d="M49.43,51.44,49,51.27l-.37.24,0-.44-.35-.28.43-.1.16-.41.23.37.45,0-.29.33Z"/><path id="path11043" class="cls-6" d="M47.46,59.32l-.25-.08-.21.17v-.26L46.78,59l.24-.09.07-.25.16.21h.26l-.14.21Z"/><path id="path11045" class="cls-6" d="M51.09,56.16l-.36-.11-.3.24v-.38l-.32-.21.36-.13.1-.37.23.31.38,0L51,55.8Z"/><path id="path11047" class="cls-6" d="M53.6,56.48l-.3-.09-.25.2v-.32l-.27-.17.3-.1.08-.31.19.25h.32l-.18.26Z"/><path id="path11049" class="cls-6" d="M52.2,57.8l-.38-.11-.3.24v-.38l-.32-.22.36-.13.1-.37.24.31.39,0-.22.32Z"/><path id="path11051" class="cls-6" d="M56.84,56.16l-.28-.08-.22.18V56l-.24-.16.27-.09.08-.28.17.23h.29l-.16.23Z"/><path id="path11053" class="cls-6" d="M58.13,55.41l-.38-.11-.3.24v-.39l-.33-.21.37-.13.1-.37.24.31.39,0-.22.32Z"/><path id="path11055" class="cls-6" d="M55.3,55.9,55,55.81,54.8,56v-.28l-.24-.16.27-.1.07-.27.18.23.28,0-.16.24Z"/><path id="path11057" class="cls-6" d="M55.3,59.05,55,59l-.22.18v-.29l-.24-.15.27-.1.08-.28.17.23h.29l-.17.24Z"/><path id="path11059" class="cls-6" d="M58.53,53l-.39-.12-.31.25v-.4l-.34-.22.38-.13L58,52l.24.32.41,0-.23.33Z"/><path id="path11198" class="cls-6" d="M39,54.16,38.73,54l-.27.17,0-.31-.24-.2.3-.07.11-.3.17.27.31,0-.2.24Z"/><path id="path11200" class="cls-6" d="M55.39,57.21l-.28-.09-.22.18V57l-.24-.16.27-.1.08-.27.17.23.29,0-.16.24Z"/><path id="path11202" class="cls-6" d="M59,54.14l-.28-.09-.22.18V54l-.24-.16.27-.1.08-.27.17.23.29,0-.17.24Z"/><path id="path11204" class="cls-6" d="M60.56,52.9l-.27-.09-.23.18v-.28l-.24-.16.28-.1.07-.27.18.23.28,0-.16.24Z"/><g id="flowRoot11206"><path id="path20497" class="cls-7" d="M33.28,41.74a.77.77,0,0,1,.17-.52.62.62,0,0,1,.46-.18.63.63,0,0,1,.33.09.59.59,0,0,1,.23.24.8.8,0,0,1,.07.36.73.73,0,0,1-.08.36.59.59,0,0,1-.23.24.72.72,0,0,1-.32.08.6.6,0,0,1-.33-.09.56.56,0,0,1-.23-.25A.72.72,0,0,1,33.28,41.74Zm.18,0a.52.52,0,0,0,.13.38.44.44,0,0,0,.64,0,.55.55,0,0,0,.13-.4.82.82,0,0,0,0-.28.4.4,0,0,0-.16-.18.4.4,0,0,0-.24-.07.44.44,0,0,0-.32.13A.54.54,0,0,0,33.46,41.74Z"/></g><g id="flowRoot11214"><path id="path20494" class="cls-7" d="M35.18,42.34V40.89h.64a1.08,1.08,0,0,1,.3,0,.36.36,0,0,1,.16.14.43.43,0,0,1,.06.22.35.35,0,0,1-.1.26.52.52,0,0,1-.31.13l.12.07a1.75,1.75,0,0,1,.16.2l.25.39h-.24L36,42l-.14-.2a.46.46,0,0,0-.1-.1l-.09,0h-.33v.64Zm.19-.81h.42a.56.56,0,0,0,.2,0,.15.15,0,0,0,.11-.08.22.22,0,0,0,0-.13.21.21,0,0,0-.07-.17.38.38,0,0,0-.24-.07h-.46Z"/></g><g id="flowRoot11222"><path id="path20491" class="cls-8" d="M37.06,42.31V40.83h.51l.26,0a.51.51,0,0,1,.22.11.49.49,0,0,1,.17.25,1,1,0,0,1,.06.35.87.87,0,0,1,0,.3.64.64,0,0,1-.1.22.4.4,0,0,1-.13.13.49.49,0,0,1-.18.08l-.24,0Zm.19-.17h.32a.71.71,0,0,0,.23,0,.24.24,0,0,0,.13-.08.37.37,0,0,0,.11-.18.85.85,0,0,0,0-.29A.71.71,0,0,0,38,41.2a.42.42,0,0,0-.18-.17.79.79,0,0,0-.26,0h-.31Z"/></g><g id="flowRoot11230"><path id="path20488" class="cls-8" d="M39,42.35V40.86H40V41h-.88v.45H40v.18h-.82v.5h.91v.18Z"/></g><g id="flowRoot11238"><path id="path20485" class="cls-8" d="M40.76,42.44l0-1.46h.3l.31,1a1.94,1.94,0,0,1,.06.22l.09-.24.38-1h.26l0,1.47H42l0-1.22-.47,1.21h-.17L41,41.2l0,1.25Z"/></g><g id="flowRoot11246"><path id="path20479" class="cls-8" d="M46.73,43.17l.36-1.39.53.13.2.07a.5.5,0,0,1,.16.11.29.29,0,0,1,.07.16.34.34,0,0,1,0,.2.45.45,0,0,1-.19.27.54.54,0,0,1-.44,0l-.36-.09-.15.56Zm.37-.69.36.1a.41.41,0,0,0,.27,0,.23.23,0,0,0,.13-.17.29.29,0,0,0,0-.16.2.2,0,0,0-.09-.11l-.17-.06L47.23,42Z"/></g><g id="flowRoot11254"><path id="path20476" class="cls-8" d="M48.53,43.65l.37-1.35.6.17a.72.72,0,0,1,.26.11.35.35,0,0,1,.12.17.41.41,0,0,1,0,.22.37.37,0,0,1-.16.21.48.48,0,0,1-.33,0,.25.25,0,0,1,.09.09.88.88,0,0,1,.1.22l.13.43-.22-.06-.1-.33a1.32,1.32,0,0,0-.08-.22.36.36,0,0,0-.06-.11.19.19,0,0,0-.07-.06l-.1,0-.21-.06-.16.6Zm.39-.71.38.11.2,0a.22.22,0,0,0,.12,0,.19.19,0,0,0,.07-.12.2.2,0,0,0,0-.17.31.31,0,0,0-.21-.12L49,42.5Z"/></g><g id="flowRoot11262"><path id="path20470" class="cls-9" d="M52.87,44.6l.06-.15.56.22-.2.49a.93.93,0,0,1-.32.05.81.81,0,0,1-.31-.06.9.9,0,0,1-.32-.23.58.58,0,0,1-.14-.33.89.89,0,0,1,.06-.39.82.82,0,0,1,.23-.32.57.57,0,0,1,.33-.16.86.86,0,0,1,.38.06.7.7,0,0,1,.24.15.41.41,0,0,1,.13.2.56.56,0,0,1,0,.26l-.17,0a.56.56,0,0,0,0-.19.42.42,0,0,0-.09-.14.5.5,0,0,0-.17-.11.63.63,0,0,0-.22,0,.48.48,0,0,0-.18,0,.71.71,0,0,0-.14.1,1,1,0,0,0-.15.24.67.67,0,0,0-.06.32.43.43,0,0,0,.1.25.73.73,0,0,0,.23.16A.61.61,0,0,0,53,45l.2,0,.1-.25Z"/></g><g id="flowRoot11303"><path id="path20482" class="cls-8" d="M44,42.62l.22-1.31.95.15,0,.16-.77-.13-.07.4L45,42l0,.16-.73-.12-.07.44.81.14,0,.15Z"/></g><g id="flowRoot11311"><path id="path20473" class="cls-9" d="M50.53,43.6a.69.69,0,0,1,.32-.44.59.59,0,0,1,.49,0,.71.71,0,0,1,.29.18.59.59,0,0,1,.14.3.79.79,0,0,1,0,.37.92.92,0,0,1-.18.32.56.56,0,0,1-.29.16.62.62,0,0,1-.33,0,.58.58,0,0,1-.3-.18.64.64,0,0,1-.14-.3A.66.66,0,0,1,50.53,43.6Zm.17.06a.55.55,0,0,0,0,.4.46.46,0,0,0,.27.22.39.39,0,0,0,.35,0,.53.53,0,0,0,.24-.34.71.71,0,0,0,0-.28.37.37,0,0,0-.1-.23.39.39,0,0,0-.2-.13.43.43,0,0,0-.35,0A.57.57,0,0,0,50.7,43.66Z"/></g><g id="flowRoot11319"><path id="path20467" class="cls-9" d="M53.8,45.63l.66-1.23.54.29a1.09,1.09,0,0,1,.24.16.38.38,0,0,1-.18.58.45.45,0,0,1-.32,0,.41.41,0,0,1,.06.11.6.6,0,0,1,.05.24l0,.45-.2-.11,0-.34q0-.15,0-.24a.34.34,0,0,0,0-.12.2.2,0,0,0-.06-.07.18.18,0,0,0-.08-.06l-.19-.1-.29.55Zm.53-.6.35.19.19.07a.35.35,0,0,0,.14,0,.38.38,0,0,0,.09-.09.23.23,0,0,0,0-.18.33.33,0,0,0-.17-.16l-.39-.21Z"/></g><g id="flowRoot11327"><path id="path20464" class="cls-9" d="M55.5,46.52l.67-1.22.88.49-.08.15-.71-.4-.21.37.67.37-.08.14L56,46.05l-.23.41.74.42L56.4,47Z"/></g><g id="flowRoot11335"><path id="path20455" class="cls-9" d="M60.54,49.12a.69.69,0,0,1,.39-.38.6.6,0,0,1,.49,0,.7.7,0,0,1,.25.23.53.53,0,0,1,.1.32.85.85,0,0,1-.33.64.51.51,0,0,1-.31.11A.75.75,0,0,1,60.8,50a.62.62,0,0,1-.25-.23.54.54,0,0,1-.09-.32A.62.62,0,0,1,60.54,49.12Zm.16.08a.59.59,0,0,0-.06.4.45.45,0,0,0,.58.29.57.57,0,0,0,.29-.3.63.63,0,0,0,.08-.28.32.32,0,0,0-.06-.23.37.37,0,0,0-.18-.17.41.41,0,0,0-.34,0A.57.57,0,0,0,60.7,49.2Z"/></g><g id="flowRoot11343"><path id="path20461" class="cls-9" d="M57.34,47l.15.09a.49.49,0,0,0-.05.18.25.25,0,0,0,.05.18.38.38,0,0,0,.15.16.4.4,0,0,0,.17.09.22.22,0,0,0,.16,0,.18.18,0,0,0,.1-.07.19.19,0,0,0,0-.12.37.37,0,0,0,0-.15l-.17-.21a1.42,1.42,0,0,1-.17-.23.38.38,0,0,1,0-.2.3.3,0,0,1,.06-.18.37.37,0,0,1,.17-.13.36.36,0,0,1,.23,0,.8.8,0,0,1,.25.11.9.9,0,0,1,.19.21.44.44,0,0,1,.07.24.45.45,0,0,1-.08.22l-.16-.1a.26.26,0,0,0,0-.22.37.37,0,0,0-.16-.21.4.4,0,0,0-.24-.1.19.19,0,0,0-.15.08.17.17,0,0,0,0,.14.66.66,0,0,0,.17.25,2.66,2.66,0,0,1,.2.26.36.36,0,0,1,.06.23.31.31,0,0,1-.07.2.32.32,0,0,1-.18.14.52.52,0,0,1-.25,0,.64.64,0,0,1-.25-.12.91.91,0,0,1-.24-.24.5.5,0,0,1-.06-.26A.41.41,0,0,1,57.34,47Z"/></g><g id="flowRoot11351"><path id="path20458" class="cls-9" d="M58.88,48.13l.16.09a.82.82,0,0,0-.06.19.32.32,0,0,0,.06.18.59.59,0,0,0,.15.17l.18.09a.29.29,0,0,0,.16,0,.18.18,0,0,0,.11-.08.16.16,0,0,0,0-.12.29.29,0,0,0-.06-.15,2.17,2.17,0,0,0-.17-.21,1,1,0,0,1-.17-.25.39.39,0,0,1-.05-.2.29.29,0,0,1,.07-.18.37.37,0,0,1,.17-.13.39.39,0,0,1,.24,0,.64.64,0,0,1,.25.12.66.66,0,0,1,.2.21.44.44,0,0,1,.07.24.53.53,0,0,1-.08.24l-.16-.1A.35.35,0,0,0,60,48a.4.4,0,0,0-.17-.21.4.4,0,0,0-.24-.1.21.21,0,0,0-.16.08.17.17,0,0,0,0,.14.82.82,0,0,0,.17.26,1.42,1.42,0,0,1,.21.27.44.44,0,0,1,.07.24.39.39,0,0,1-.08.2.38.38,0,0,1-.19.14.42.42,0,0,1-.25,0,.68.68,0,0,1-.26-.12.93.93,0,0,1-.24-.25.54.54,0,0,1-.07-.27A.62.62,0,0,1,58.88,48.13Z"/></g></g></g><path id="path10161" class="cls-10" d="M50.41,33a151.42,151.42,0,0,0-8.29,19.77C45.48,56.33,47.25,59,57.69,66.2A72.53,72.53,0,0,0,74.82,54.93a61.27,61.27,0,0,0-4.41-19.75,75.27,75.27,0,0,0-20-2.14Z"/><path id="path10163" class="cls-10" d="M53.22,81.67A38.92,38.92,0,0,0,57.68,66.2"/><path id="path10165" class="cls-10" d="M74.74,54.93a38.29,38.29,0,0,1,10.77,5.93"/><path id="path10167" class="cls-10" d="M70.36,35.27c2.31-3.54,5.15-5.78,6.92-12.73"/><path id="path10169" class="cls-10" d="M50.51,33.08A125.67,125.67,0,0,0,39.09,18.29"/><path id="path10171" class="cls-10" d="M12,40.88c2.1-8.76,5-14.86,8.32-18.53"/><path id="path10173" class="cls-10" d="M19.46,72c2.69,4.26,6.2,9.16,14.72,12.57"/><path id="path10175" class="cls-10" d="M47,6.33C52.19,5,58.18,4.59,66.37,8.28"/><path id="path10177" class="cls-10" d="M64,87A35.34,35.34,0,0,0,81.2,75.83"/><path id="path10179" class="cls-10" d="M87.77,28.13c3.63,6.19,5.18,12.78,5,21.12"/><path id="path10181" class="cls-10" d="M22.47,55.57C30.19,55.31,36,54,42.13,52.81"/><path id="path10183" class="cls-10" d="M12,40.85c2.57,6.55,6.55,10.56,10.46,14.72-1.33,5-3.11,9.42-3,16.43-3.84-.39-7.6-1.18-11-3.52C2.78,60.23,2.77,54,3.3,47.87,5.73,44.32,8.87,42.57,12,40.85Z"/><path id="path10185" class="cls-10" d="M20.29,22.41c5.7-3.33,12.1-4.21,18.79-4.11,1.61-3,1-3.84,7.9-12-.25-.65-4.35-3.6-11.76-3.26-6.74,1.5-12.64,4.36-16.93,9.8C17.5,14.6,18.51,18.12,20.29,22.41Z"/><path id="path10187" d="M36.43,1.31l-.17,0L36,1.42a3.73,3.73,0,0,0-.51.69,3.48,3.48,0,0,0-.38.93.11.11,0,0,0,.22,0,3.33,3.33,0,0,1,.35-.86A3.21,3.21,0,0,1,36.43,1.31ZM71.06,6.22a8.29,8.29,0,0,0-4.77,2l-.11.1.12.08C73.3,13.26,76,18,77.11,22.67l0,.08h.09c3.45-.26,6.93,1.34,10.47,5.46l.07.07.08-.05a1.46,1.46,0,0,0,.34-.45c.11-.21.24-.48.37-.8a18.24,18.24,0,0,0,.67-2l-.15-.29a18.16,18.16,0,0,1-.72,2.19c-.13.31-.25.58-.36.78a1.4,1.4,0,0,1-.22.29c-3.51-4-7-5.67-10.48-5.44-1.17-4.67-3.85-9.4-10.74-14.24A7.94,7.94,0,0,1,71.4,6.42l-.34-.2ZM18.25,12.74h0a15.52,15.52,0,0,0-4.9,1.6l-.41.42A16.35,16.35,0,0,1,18.28,13a.12.12,0,0,0,.1-.12.13.13,0,0,0-.12-.1ZM.38,40.93s0,0,0,0c0,.18,0,.37-.07.55v0a24.27,24.27,0,0,0,1.19,3.7A6.13,6.13,0,0,0,3.24,48a.1.1,0,0,0,.15,0,.11.11,0,0,0,0-.15,6.31,6.31,0,0,1-1.66-2.61A24.91,24.91,0,0,1,.38,40.93Zm92.27,8.13,0,.14c-1.21,4.36-3.16,8.39-7.16,11.57l-.06,0,0,.06c1.39,6.66-1.68,10.61-4.31,14.9l-.06.11.11,0a5.45,5.45,0,0,0,2.21.25l.2-.24a6.14,6.14,0,0,1-2.2-.17C84,71.55,87,67.53,85.63,60.9a21.35,21.35,0,0,0,7.14-11.47,4.11,4.11,0,0,1,.68.85,8.74,8.74,0,0,1,.67,1.27s0-.08,0-.12a.45.45,0,0,0,0-.11l0-.2h0c-.15-.31-.34-.64-.53-1a3.55,3.55,0,0,0-.86-1ZM8.43,68.37a.1.1,0,0,0-.07,0,4.07,4.07,0,0,0-.71,1.31,15.32,15.32,0,0,0-.53,1.62l.16.24a15.93,15.93,0,0,1,.57-1.78,4.46,4.46,0,0,1,.66-1.24.11.11,0,0,0-.07-.19ZM53.25,81.54l-.06,0c-6.81,2.2-13.64,4.48-19.1,2.86l-.18,0,0,.18,1.93,7.18.24,0-1.91-7.11c5.51,1.55,12.27-.71,19-2.88A17.14,17.14,0,0,0,63.88,87l-5.09,4.5.46-.12,5-4.37.18-.16-.24,0A17,17,0,0,1,53.3,81.59Z"/><g class="cls-11"><path id="path10159-2" data-name="path10159" class="cls-12" d="M93.44,36.79C98.72,61.9,82.3,86.61,56.77,92S6.27,81.34,1,56.22,12.12,6.4,37.65,1,88.16,11.68,93.44,36.79Z"/></g></g></g></svg>