<svg xmlns="http://www.w3.org/2000/svg" xmlns:xlink="http://www.w3.org/1999/xlink" viewBox="0 0 94.43 93.01"><defs><style>.cls-1,.cls-3{mask:url(#mask);}.cls-1{filter:url(#luminosity-noclip-3);}.cls-2,.cls-4{mix-blend-mode:multiply;}.cls-2{fill:url(#radial-gradient);}.cls-4{fill:url(#radial-gradient-2);}.cls-5{fill:#fff;}.cls-6{fill-opacity:0;}.cls-7{fill:#002395;}.cls-8{fill:#ff0c00;}.cls-9{fill:none;stroke:#000;stroke-width:0.25px;}.cls-10{mask:url(#mask-3);}.cls-11{fill:url(#radial-gradient-3);}.cls-12{fill:url(#radial-gradient-4);}.cls-13{filter:url(#luminosity-noclip);}</style><filter id="luminosity-noclip" x="0" y="-7917.71" width="94.43" height="32766" filterUnits="userSpaceOnUse" color-interpolation-filters="sRGB"><feFlood flood-color="#fff" result="bg"/><feBlend in="SourceGraphic" in2="bg"/></filter><mask id="mask" x="0" y="-7917.71" width="94.43" height="32766" maskUnits="userSpaceOnUse"><g class="cls-13"/></mask><radialGradient id="radial-gradient" cx="7567.68" cy="-12774.26" r="54.92" gradientTransform="matrix(1.06, 0, 0, -0.96, -7964.82, -12269.87)" gradientUnits="userSpaceOnUse"><stop offset="0" stop-color="#afafaf"/><stop offset="0.41"/><stop offset="1"/></radialGradient><radialGradient id="radial-gradient-2" cx="7578.27" cy="-12778.3" r="54.92" gradientTransform="matrix(1.06, 0, 0, -0.96, -7964.82, -12269.87)" gradientUnits="userSpaceOnUse"><stop offset="0"/><stop offset="0.41"/><stop offset="1" stop-color="#595959"/></radialGradient><filter id="luminosity-noclip-3" x="0" y="0" width="94.43" height="93.01" filterUnits="userSpaceOnUse" color-interpolation-filters="sRGB"><feFlood flood-color="#fff" result="bg"/><feBlend in="SourceGraphic" in2="bg"/></filter><mask id="mask-3" x="0" y="0" width="94.43" height="93.01" maskUnits="userSpaceOnUse"><g class="cls-1"><path id="path31276" class="cls-2" d="M93.44,36.79C98.72,61.9,82.3,86.61,56.77,92S6.27,81.34,1,56.23,12.12,6.4,37.65,1,88.16,11.68,93.44,36.79Z"/></g></mask><radialGradient id="radial-gradient-3" cx="7567.68" cy="-12774.26" r="54.92" gradientTransform="matrix(1.06, 0, 0, -0.96, -7964.82, -12269.87)" gradientUnits="userSpaceOnUse"><stop offset="0" stop-color="#fff"/><stop offset="0.41" stop-color="#fff"/><stop offset="1" stop-color="#fff"/></radialGradient><radialGradient id="radial-gradient-4" cx="7578.27" cy="-12778.3" r="54.92" gradientTransform="matrix(1.06, 0, 0, -0.96, -7964.82, -12269.87)" gradientUnits="userSpaceOnUse"><stop offset="0" stop-color="#fff"/><stop offset="0.41" stop-color="#fff"/><stop offset="1" stop-opacity="0.5"/></radialGradient></defs><g id="Layer_2" data-name="Layer 2"><g id="svg10422"><path id="path8115" class="cls-5" d="M93.44,36.79C98.72,61.9,82.3,86.61,56.77,92S6.27,81.34,1,56.23,12.12,6.4,37.65,1,88.16,11.68,93.44,36.79Z"/><path id="path31242" class="cls-6" d="M93.44,36.79C98.72,61.9,82.3,86.61,56.77,92S6.27,81.34,1,56.23,12.12,6.4,37.65,1,88.16,11.68,93.44,36.79Z"/><path id="path31244" class="cls-7" d="M30.77,3A47,47,0,0,0,0,46.58a48.61,48.61,0,0,0,4.73,20.5.91.91,0,0,1,.07.14l0,.06a46.64,46.64,0,0,0,26,23Q17.81,47.09,30.77,3Z"/><path id="path31246" class="cls-8" d="M64.07,3c8.56,28.48,8.27,57.45.05,86.86A47,47,0,0,0,94.4,47.88v0a1.93,1.93,0,0,1,0-.24c0-.12,0-.24,0-.35v-.18c0-.29,0-.58,0-.87v-.05c0-.14,0-.28,0-.42v-.46a2.62,2.62,0,0,1,0-.28v-.18A46.14,46.14,0,0,0,64.07,3Z"/><path id="path31248" class="cls-9" d="M50.41,33a151.42,151.42,0,0,0-8.29,19.77C45.48,56.33,47.25,59,57.69,66.2A72.53,72.53,0,0,0,74.82,54.93a61.52,61.52,0,0,0-4.4-19.75A75.37,75.37,0,0,0,50.41,33Z"/><path id="path31250" class="cls-9" d="M53.22,81.67A38.92,38.92,0,0,0,57.68,66.2"/><path id="path31252" class="cls-9" d="M74.74,54.93a38.48,38.48,0,0,1,10.78,5.93"/><path id="path31254" class="cls-9" d="M70.36,35.27c2.31-3.54,5.15-5.78,6.92-12.73"/><path id="path31256" class="cls-9" d="M50.52,33.08A126.87,126.87,0,0,0,39.09,18.29"/><path id="path31258" class="cls-9" d="M12,40.88c2.1-8.76,5-14.86,8.32-18.53"/><path id="path31260" class="cls-9" d="M19.46,72c2.69,4.26,6.2,9.16,14.72,12.57"/><path id="path31262" class="cls-9" d="M47,6.33C52.19,5,58.18,4.59,66.37,8.28"/><path id="path31264" class="cls-9" d="M64,87A35.34,35.34,0,0,0,81.2,75.83"/><path id="path31266" class="cls-9" d="M87.78,28.13C91.4,34.32,93,40.91,92.72,49.25"/><path id="path31268" class="cls-9" d="M22.48,55.57C30.19,55.31,36,54,42.13,52.81"/><path id="path31270" class="cls-9" d="M12,40.85c2.57,6.55,6.55,10.56,10.46,14.72-1.33,5-3.11,9.42-3,16.43-3.84-.39-7.6-1.18-11-3.52C2.78,60.23,2.77,54,3.3,47.87,5.73,44.32,8.87,42.57,12,40.85Z"/><path id="path31272" class="cls-9" d="M20.29,22.41c5.7-3.33,12.1-4.21,18.79-4.11,1.61-3,1-3.84,7.9-12-.25-.65-4.35-3.6-11.76-3.26-6.74,1.5-12.64,4.36-16.93,9.8C17.5,14.6,18.51,18.12,20.29,22.41Z"/><path id="path31274" d="M36.43,1.31l-.17,0L36,1.42a3.73,3.73,0,0,0-.51.69,3.48,3.48,0,0,0-.38.93.12.12,0,0,0,.09.13.11.11,0,0,0,.13-.09,3.33,3.33,0,0,1,.35-.86A3.21,3.21,0,0,1,36.43,1.31ZM71.06,6.22a8.29,8.29,0,0,0-4.77,2l-.1.1.11.08C73.3,13.26,76,18,77.11,22.66l0,.09h.09c3.46-.26,6.94,1.34,10.48,5.46l.06.07.08-.05a1.46,1.46,0,0,0,.34-.45c.11-.21.24-.48.37-.79a19.23,19.23,0,0,0,.67-2l-.15-.28a16.88,16.88,0,0,1-.72,2.18c-.13.31-.25.58-.36.78a1.4,1.4,0,0,1-.22.29c-3.51-4-7-5.67-10.48-5.44-1.17-4.67-3.85-9.39-10.74-14.24A7.94,7.94,0,0,1,71.4,6.42l-.34-.2ZM18.25,12.74h0a15.52,15.52,0,0,0-4.9,1.6l-.41.42A16.43,16.43,0,0,1,18.28,13a.11.11,0,0,0,.1-.12.12.12,0,0,0-.12-.1ZM.38,40.93s0,0,0,0c0,.18,0,.37-.07.55v0a24.27,24.27,0,0,0,1.19,3.7A6.21,6.21,0,0,0,3.24,48a.1.1,0,0,0,.15,0,.1.1,0,0,0,0-.15,6.52,6.52,0,0,1-1.66-2.61A24.91,24.91,0,0,1,.38,40.93Zm92.27,8.13,0,.14c-1.21,4.36-3.16,8.39-7.16,11.57l-.06,0,0,.06c1.39,6.66-1.68,10.61-4.31,14.9l-.06.1.11.05a5.45,5.45,0,0,0,2.21.25l.2-.24a6.14,6.14,0,0,1-2.2-.17C84,71.55,87,67.53,85.63,60.9a21.35,21.35,0,0,0,7.14-11.47,4.46,4.46,0,0,1,.69.85,9.71,9.71,0,0,1,.66,1.27v-.12s0-.08,0-.11a1.36,1.36,0,0,1,0-.2h0c-.15-.31-.34-.65-.53-1a3.4,3.4,0,0,0-.86-1l-.13-.08ZM8.43,68.37a.1.1,0,0,0-.07,0,4.07,4.07,0,0,0-.71,1.31,15.32,15.32,0,0,0-.53,1.62c.06.08.11.16.16.24a15.93,15.93,0,0,1,.57-1.78,4.46,4.46,0,0,1,.66-1.24.11.11,0,0,0-.07-.19ZM53.25,81.54l-.06,0c-6.81,2.2-13.64,4.48-19.1,2.86l-.18,0,0,.18,1.93,7.18.24,0-1.91-7.11c5.51,1.55,12.27-.71,19-2.88A17.14,17.14,0,0,0,63.88,87l-5.09,4.5.46-.12,5-4.37.18-.16-.24,0A17,17,0,0,1,53.3,81.59l0,0Z"/><g class="cls-10"><path id="path31276-2" data-name="path31276" class="cls-11" d="M93.44,36.79C98.72,61.9,82.3,86.61,56.77,92S6.27,81.34,1,56.23,12.12,6.4,37.65,1,88.16,11.68,93.44,36.79Z"/></g><g class="cls-10"><path id="path31278-2" data-name="path31278" class="cls-12" d="M93.44,36.79C98.72,61.9,82.3,86.61,56.77,92S6.27,81.34,1,56.23,12.12,6.4,37.65,1,88.16,11.68,93.44,36.79Z"/></g></g></g></svg>