<svg xmlns="http://www.w3.org/2000/svg" xmlns:xlink="http://www.w3.org/1999/xlink" viewBox="0 0 479.86 137.71"><defs><style>.cls-1,.cls-2{fill:#296311;}.cls-14,.cls-17,.cls-2{stroke:#fff;}.cls-17,.cls-2{stroke-miterlimit:10;}.cls-12,.cls-13,.cls-14,.cls-2{stroke-width:3px;}.cls-3{font-size:73.27px;}.cls-3,.cls-4{fill:#fff;}.cls-17,.cls-3,.cls-4{font-family:Arial-Black, Arial Black;font-weight:800;}.cls-4{font-size:75.19px;}.cls-5{font-size:28.5px;font-family:ArialRoundedMTBold, Arial Rounded MT Bold;}.cls-6,.cls-7{fill-rule:evenodd;}.cls-6{fill:url(#radial-gradient);}.cls-7{fill:url(#radial-gradient-2);}.cls-10,.cls-11,.cls-12,.cls-13,.cls-14,.cls-15,.cls-16,.cls-8,.cls-9{fill:none;}.cls-8,.cls-9{stroke-linejoin:round;}.cls-8{stroke-width:4.87px;stroke:url(#linear-gradient);}.cls-9{stroke-width:4.87px;stroke:url(#linear-gradient-2);}.cls-10{stroke-width:5.02px;stroke:url(#linear-gradient-3);}.cls-11{stroke:#666;}.cls-12,.cls-16{stroke:#ececec;}.cls-13{stroke:#f2f2f2;stroke-linecap:square;}.cls-15{stroke:#999;}.cls-17{font-size:93.13px;fill:#f41c1c;stroke-width:3.44px;}</style><radialGradient id="radial-gradient" cx="546.16" cy="526.03" r="56.19" gradientTransform="translate(-29.34 -399.76) scale(0.84)" gradientUnits="userSpaceOnUse"><stop offset="0" stop-color="#6a6a6a"/><stop offset="1"/></radialGradient><radialGradient id="radial-gradient-2" cx="414.48" cy="1290.55" r="51.44" gradientTransform="translate(39.21 -1250.15)" gradientUnits="userSpaceOnUse"><stop offset="0" stop-color="#fff"/><stop offset="0.47" stop-color="#fff"/><stop offset="1" stop-color="#d6d6d6"/></radialGradient><linearGradient id="linear-gradient" x1="-46.83" y1="249.1" x2="-46.03" y2="249.1" gradientTransform="translate(25584.88 -35267) scale(122.72 141.81)" gradientUnits="userSpaceOnUse"><stop offset="0"/><stop offset="1" stop-opacity="0"/></linearGradient><linearGradient id="linear-gradient-2" x1="-43.67" y1="251.18" x2="-44.45" y2="251.18" gradientTransform="translate(24158.19 -36654.5) scale(120.67 146.11)" xlink:href="#linear-gradient"/><linearGradient id="linear-gradient-3" x1="-54.32" y1="244.89" x2="-54.18" y2="244.89" gradientTransform="translate(31474.96 -15869.95) scale(115.34 65.04)" gradientUnits="userSpaceOnUse"><stop offset="0" stop-color="#333"/><stop offset="1" stop-opacity="0"/></linearGradient></defs><g id="Layer_2" data-name="Layer 2"><g id="Layer_1-2" data-name="Layer 1"><rect class="cls-1" x="89.73" y="47.5" width="292.97" height="11"/><circle class="cls-2" cx="53" cy="53" r="51.5"/><text class="cls-3" transform="translate(28.56 75.2)">L</text><circle class="cls-2" cx="176.98" cy="53" r="51.5"/><text class="cls-3" transform="translate(162.73 76.2)">I</text><circle class="cls-2" cx="300.97" cy="53" r="51.5"/><text class="cls-4" transform="translate(270.45 78.73) scale(0.97 1)">G</text><text class="cls-5" transform="translate(264.3 131.7)">Copa do Mundo</text><path class="cls-6" d="M476.4,52A51.4,51.4,0,1,1,425,.6,51.38,51.38,0,0,1,476.4,52Z"/><path class="cls-7" d="M425,.6a51.48,51.48,0,0,0-30.1,9.7,79.4,79.4,0,0,0-6.3,8.9L383.9,21a51.4,51.4,0,0,0-10.4,31c0,1.1,0,2.2.1,3.2,1.2,2.1,2,3.4,2,3.4l-.6,5.9a52,52,0,0,0,23.6,31.7c.8.5,1.5.9,2.3,1.3a4.37,4.37,0,0,0-.8-.7,65,65,0,0,1-5.6-6.8l7.3-6.7a40.19,40.19,0,0,0,10,5.4,44.28,44.28,0,0,0,11.1,2l3.6,9.3a31.06,31.06,0,0,1-7.8,2.4c-.8.1-1.7.3-2.5.4a49.09,49.09,0,0,0,8.6.7,51.15,51.15,0,0,0,31.6-10.8c2.7-3.7,4.5-6.8,4.5-6.8l4-1.6a51.47,51.47,0,0,0,11.4-31.9,33.66,33.66,0,0,0-2.9-6.6,36.54,36.54,0,0,0-.2-8c-.1-.7.4-.4.9-.8-.2-.6-.7-2.4-1-3.2a32.75,32.75,0,0,0-3-6.4h0A51.28,51.28,0,0,0,425,.6Zm6.2,1.9a38.6,38.6,0,0,1,8.7,1.4,38.45,38.45,0,0,1,8.7,4.7,27.65,27.65,0,0,1,5.8,6.3l-9.2,6.4a51.44,51.44,0,0,0-10.1-5.2A44.36,44.36,0,0,0,424.5,14l-2.6-9.5a22.85,22.85,0,0,1,8.5-2ZM401.1,27.9a42.55,42.55,0,0,1,5.8.4l4.8,20.2L396.4,63a74.1,74.1,0,0,1-8.2-6,40.6,40.6,0,0,1-5.5-5.9,75.8,75.8,0,0,1,2-10.9,56.48,56.48,0,0,1,3.6-9.3,26.89,26.89,0,0,1,8.4-2.9c1.5,0,3-.1,4.4-.1Zm49.5,14.5a40.6,40.6,0,0,1,7.8,4.7,37.31,37.31,0,0,1,6.1,6.4,43.62,43.62,0,0,1-1.9,10.3,74.86,74.86,0,0,1-4.7,10.7,38.67,38.67,0,0,1-8.8,2,46.18,46.18,0,0,1-9.3-.3l-2.4-9.9L435,56.1a69.68,69.68,0,0,1,7.1-7.3,72.58,72.58,0,0,1,8.5-6.4Z"/><path class="cls-8" d="M464.1,53.6a40.86,40.86,0,0,1-1.9,10A63.2,63.2,0,0,1,457.6,74a44,44,0,0,1-8.6,2,44.24,44.24,0,0,1-9.1-.3l-2.3-9.6-2.4-9.9a61.55,61.55,0,0,1,7-7.1,99.81,99.81,0,0,1,8.3-6.2,38.27,38.27,0,0,1,7.6,4.5,33.46,33.46,0,0,1,6,6.2Z"/><path class="cls-9" d="M396.4,62.6a81.93,81.93,0,0,1-8-5.8,35.69,35.69,0,0,1-5.4-5.7,72.79,72.79,0,0,1,2-10.6,55.84,55.84,0,0,1,3.5-9,27,27,0,0,1,8.2-2.8,39.84,39.84,0,0,1,10,.1l4.6,19.7L396.4,62.6Z"/><path class="cls-10" d="M439.7,4.9A37.12,37.12,0,0,1,447.3,9a22.36,22.36,0,0,1,5.1,5.5l-8.1,5.6a45.53,45.53,0,0,0-8.9-4.6,54.76,54.76,0,0,0-10.9-2.2l-2.1-8.4a36.2,36.2,0,0,1,8.4-1.7,32.78,32.78,0,0,1,8.9,1.7Z"/><path class="cls-11" d="M406.7,28.6s8.3-11,17.9-14.7"/><path class="cls-12" d="M445.7,21.1s6.2,9.8,5.4,21"/><path class="cls-11" d="M445.2,21.2s6.3,10.1,5.5,21.3"/><path class="cls-11" d="M453.7,14.9s13.7,5.4,19.7,22.5"/><path class="cls-11" d="M464.6,53.5s4.8-.4,9-7.5"/><path class="cls-11" d="M461.2,85.8s.7-4.1-3.3-11.6"/><path class="cls-11" d="M423.1,90.7s7.4-2,16.8-14.9"/><path class="cls-11" d="M396.4,62.9s-.4,11.5,5.3,20.6"/><path class="cls-11" d="M394.6,90s-1.7,0-8.1-3.9"/><path class="cls-11" d="M382.8,51.2a15,15,0,0,0-7.1,7.3"/><path class="cls-11" d="M388.6,19.3s-1.7,6.4-.2,11.7"/><path class="cls-11" d="M394.1,11.1S407.8-.5,421.8,4.6"/><path class="cls-11" d="M426.6,99.9s12,3.1,30.4-7.8"/><path class="cls-13" d="M406.7,27.8s6.9-9.5,17-14"/><path class="cls-14" d="M423.3,91.1s7-1.4,16.4-14.3"/><path class="cls-14" d="M395.9,63.2s-.4,11.5,5.3,20.6"/><path class="cls-15" d="M411.8,48.6s6,1.4,23.2,7.5"/><path class="cls-16" d="M411.8,48.3s6,1.4,23.2,7.5"/><text class="cls-17" transform="translate(393.9 85.72)">4</text></g></g></svg>