<svg xmlns="http://www.w3.org/2000/svg" xmlns:xlink="http://www.w3.org/1999/xlink" viewBox="0 0 94.43 93.01"><defs><style>.cls-1,.cls-3{mask:url(#mask);}.cls-1{filter:url(#luminosity-noclip-3);}.cls-2,.cls-4{mix-blend-mode:multiply;}.cls-2{fill:url(#radial-gradient);}.cls-4{fill:url(#radial-gradient-2);}.cls-5{mask:url(#mask-3);}.cls-6{fill:url(#radial-gradient-3);}.cls-7{fill:#00008b;}.cls-8,.cls-9{fill:#fff;}.cls-12,.cls-8{stroke:#000;stroke-width:0.25px;}.cls-10{fill:red;}.cls-11{fill-opacity:0;}.cls-12{fill:none;}.cls-13{fill:url(#radial-gradient-4);}.cls-14{filter:url(#luminosity-noclip);}</style><filter id="luminosity-noclip" x="0" y="-7906.99" width="94.43" height="32766" filterUnits="userSpaceOnUse" color-interpolation-filters="sRGB"><feFlood flood-color="#fff" result="bg"/><feBlend in="SourceGraphic" in2="bg"/></filter><mask id="mask" x="0" y="-7906.99" width="94.43" height="32766" maskUnits="userSpaceOnUse"><g class="cls-14"/></mask><radialGradient id="radial-gradient" cx="7585.33" cy="-11429.1" r="54.92" gradientTransform="matrix(1.06, 0, 0, -0.96, -7972.28, -10970.32)" gradientUnits="userSpaceOnUse"><stop offset="0"/><stop offset="0.41"/><stop offset="1" stop-color="#737373"/></radialGradient><radialGradient id="radial-gradient-2" cx="7574.74" cy="-11425.06" r="54.92" gradientTransform="matrix(1.06, 0, 0, -0.96, -7972.28, -10970.32)" gradientUnits="userSpaceOnUse"><stop offset="0" stop-color="#afafaf"/><stop offset="0.41"/><stop offset="1"/></radialGradient><filter id="luminosity-noclip-3" x="0" y="0" width="94.43" height="93.01" filterUnits="userSpaceOnUse" color-interpolation-filters="sRGB"><feFlood flood-color="#fff" result="bg"/><feBlend in="SourceGraphic" in2="bg"/></filter><mask id="mask-3" x="0" y="0" width="94.43" height="93.01" maskUnits="userSpaceOnUse"><g class="cls-1"><path id="path21987" class="cls-2" d="M93.44,36.79C98.72,61.9,82.3,86.61,56.77,92S6.27,81.34,1,56.22,12.12,6.4,37.65,1,88.16,11.68,93.44,36.79Z"/></g></mask><radialGradient id="radial-gradient-3" cx="7585.33" cy="-11429.1" r="54.92" gradientTransform="matrix(1.06, 0, 0, -0.96, -7972.28, -10970.32)" gradientUnits="userSpaceOnUse"><stop offset="0" stop-color="#fff"/><stop offset="0.41" stop-color="#fff"/><stop offset="1"/></radialGradient><radialGradient id="radial-gradient-4" cx="7574.74" cy="-11425.06" r="54.92" gradientTransform="matrix(1.06, 0, 0, -0.96, -7972.28, -10970.32)" gradientUnits="userSpaceOnUse"><stop offset="0" stop-color="#fff"/><stop offset="0.41" stop-color="#fff"/><stop offset="1" stop-color="#fff"/></radialGradient></defs><g id="Layer_2" data-name="Layer 2"><g id="svg10422"><g class="cls-5"><path id="path21987-2" data-name="path21987" class="cls-6" d="M93.44,36.79C98.72,61.9,82.3,86.61,56.77,92S6.27,81.34,1,56.22,12.12,6.4,37.65,1,88.16,11.68,93.44,36.79Z"/></g><path id="path22135" class="cls-7" d="M93.44,36.79C98.72,61.9,82.3,86.61,56.77,92S6.27,81.34,1,56.22,12.12,6.4,37.65,1,88.16,11.68,93.44,36.79Z"/><g id="g22489"><path id="path15666" class="cls-8" d="M66.55,73.28l-.85,3.34-3.6-1.27L63.89,78l-2.77,2.1,3.44,0-.39,3.65,2.38-2.5L69,83.87l-.21-3.65,3.35-.08-2.84-2,1.63-2.76-3.33,1.27Z"/><path id="path15668" class="cls-8" d="M57.43,37.74l-.85,3.35L53,39.82l1.79,2.69L52,44.61l3.43,0-.38,3.65,2.37-2.5,2.42,2.54-.21-3.65L63,44.61l-2.84-2,1.64-2.75-3.33,1.27Z"/><path id="path15670" class="cls-8" d="M67.36,6.77l-.85,3.35L62.92,8.85l1.79,2.69-2.77,2.1,3.43,0L65,17.32l2.37-2.5,2.42,2.55-.21-3.65,3.34-.08-2.84-2,1.64-2.75-3.33,1.27Z"/><path id="path15672" class="cls-8" d="M85.54,32.39l-.85,3.34-3.6-1.27,1.79,2.69-2.77,2.1,3.43,0-.38,3.65,2.38-2.5L88,43l-.21-3.64,3.35-.09-2.84-2,1.63-2.76-3.33,1.27Z"/><path id="path15674" class="cls-8" d="M79.92,48.83l-.46,1.85-2-.7,1,1.48-1.53,1.16,1.89,0-.21,2,1.31-1.38,1.34,1.4-.12-2L83,52.62,81.42,51.5l.9-1.52-1.83.7Z"/><path id="path22279" class="cls-8" d="M25.56,58.92l-1.51,6-6.41-2.27,3.18,4.8-4.93,3.74,6.12.08-.68,6.49,4.23-4.45,4.31,4.53-.38-6.5,6-.15L30.4,67.53l2.91-4.91-5.93,2.27Z"/></g><g id="g22379"><path id="path22242" class="cls-9" d="M20.19,8.55a47.26,47.26,0,0,0-5.33,4.3l4.53,4.57,26,29.09h2V36L20.19,8.55Z"/><path id="path22244" class="cls-9" d="M47.17,0q-1,0-2.07.06L28.43,20.51l-6.3,2.71L0,45l0,1.5H6.87L22.92,29.86l16.13-15.1L47.38,4.15V0Z"/><path id="path22269" class="cls-10" d="M21.39,27.21,2.24,46.51H5.81L22.36,29.23C21.5,28.23,22.4,28.06,21.39,27.21Z"/><path id="path22254" class="cls-10" d="M18,10.13c-.79.62-1.56,1.26-2.31,1.93l4.35,4.61,1.86-.06.18-2.23Z"/><path id="path22252" class="cls-10" d="M35.62,25.05c-1,.8-2.25.53-3.16,1.49L47.38,41.59V36.9Z"/><path id="path22274" class="cls-10" d="M47.17,0c-.48,0-1,0-1.42,0L34.09,14.22c.69,1.13,0,.77.89,1.77L47.38.38V0Z"/><path id="path22206" class="cls-9" d="M36.18,1.37a48,48,0,0,0-12,4.71,126.73,126.73,0,0,0-7.61,40.43H33A240.93,240.93,0,0,1,36.18,1.37Z"/><path id="rect22232" class="cls-9" d="M47.38,13.27q-16.91,0-33.86.89a47.13,47.13,0,0,0-10,15.09Q25.44,28,47.38,27.92Z"/><path id="rect22230" class="cls-10" d="M47.38,15q-17.76,0-35.5.93A47,47,0,0,0,4.22,27.59q21.56-1.05,43.16-1.12Z"/><path id="path22217" class="cls-10" d="M35,1.67a47.64,47.64,0,0,0-9.11,3.47c-3.84,11.72-6,26.21-6.58,41.37H31.42A262.2,262.2,0,0,1,35,1.67Z"/></g><path id="path21943" class="cls-11" d="M93.44,36.79C98.72,61.9,82.3,86.61,56.77,92S6.27,81.34,1,56.22,12.12,6.4,37.65,1,88.16,11.68,93.44,36.79Z"/><path id="path21949" class="cls-12" d="M50.41,33a151.42,151.42,0,0,0-8.29,19.77C45.48,56.33,47.25,59,57.69,66.2A72.53,72.53,0,0,0,74.82,54.93a61.52,61.52,0,0,0-4.4-19.75A75,75,0,0,0,50.41,33Z"/><path id="path21951" class="cls-12" d="M53.22,81.67A39,39,0,0,0,57.68,66.2"/><path id="path21953" class="cls-12" d="M74.74,54.93a38.48,38.48,0,0,1,10.78,5.93"/><path id="path21955" class="cls-12" d="M70.36,35.27c2.31-3.54,5.15-5.78,6.92-12.73"/><path id="path21957" class="cls-12" d="M50.52,33.08A126.87,126.87,0,0,0,39.09,18.29"/><path id="path21960" class="cls-12" d="M12,40.88c2.1-8.76,5-14.86,8.32-18.53"/><path id="path21963" class="cls-12" d="M19.46,72c2.69,4.26,6.2,9.16,14.72,12.57"/><path id="path21966" class="cls-12" d="M47,6.33C52.19,5,58.18,4.59,66.37,8.28"/><path id="path21969" class="cls-12" d="M64,87A35.34,35.34,0,0,0,81.2,75.83"/><path id="path21972" class="cls-12" d="M82.91,28.13c3.63,6.19,5.18,12.78,5,21.11"/><path id="path21975" class="cls-12" d="M22.48,55.57C30.19,55.31,36,54,42.13,52.81"/><path id="path21978" class="cls-12" d="M12,40.85c2.57,6.55,6.55,10.56,10.46,14.72-1.33,5-3.11,9.42-3,16.43-3.84-.39-7.6-1.18-11-3.52C2.78,60.23,2.77,54,3.3,47.87,5.73,44.32,8.87,42.57,12,40.85Z"/><path id="path21981" class="cls-12" d="M20.29,22.41c5.7-3.33,12.1-4.21,18.79-4.11,1.61-3,1-3.84,7.9-12-.25-.65-4.35-3.6-11.76-3.26-6.74,1.5-12.64,4.36-16.93,9.8C17.5,14.6,18.51,18.12,20.29,22.41Z"/><path id="path21983" d="M36.43,1.31l-.17,0L36,1.42a3.73,3.73,0,0,0-.51.69,3.48,3.48,0,0,0-.38.93.12.12,0,0,0,.09.13.11.11,0,0,0,.13-.09,3.33,3.33,0,0,1,.35-.86,3.21,3.21,0,0,1,.75-.91ZM71.06,6.22a8.29,8.29,0,0,0-4.77,2l-.1.1.11.08C73.3,13.26,76,18,77.11,22.66l0,.09h.09c3.45-.26,6.93,1.34,10.48,5.46l.06.07.08-.05a1.46,1.46,0,0,0,.34-.45c.11-.21.24-.48.37-.8a18.24,18.24,0,0,0,.67-2l-.15-.29a16.55,16.55,0,0,1-.72,2.19c-.13.31-.25.58-.36.78a1.4,1.4,0,0,1-.22.29c-3.51-4-7-5.67-10.48-5.44-1.17-4.67-3.85-9.4-10.74-14.24A7.94,7.94,0,0,1,71.4,6.42l-.34-.2ZM18.25,12.74h0a15.52,15.52,0,0,0-4.9,1.6l-.41.42A16.43,16.43,0,0,1,18.28,13a.12.12,0,0,0,.1-.12.12.12,0,0,0-.12-.1ZM.38,40.93a.43.43,0,0,0,0,0c0,.18,0,.37-.07.55v0a24.27,24.27,0,0,0,1.19,3.7A6.21,6.21,0,0,0,3.24,48a.11.11,0,1,0,.11-.18,6.41,6.41,0,0,1-1.66-2.61A24.91,24.91,0,0,1,.38,40.93Zm92.27,8.13,0,.14c-1.21,4.36-3.16,8.39-7.16,11.57l-.06,0,0,.06c1.39,6.66-1.68,10.61-4.31,14.9l-.06.1.11.05a5.45,5.45,0,0,0,2.21.25l.2-.24a6.14,6.14,0,0,1-2.2-.17C84,71.55,87,67.53,85.63,60.9a21.35,21.35,0,0,0,7.14-11.47,4.46,4.46,0,0,1,.69.85,9.71,9.71,0,0,1,.66,1.27s0-.08,0-.12,0-.08,0-.12a1.37,1.37,0,0,1,0-.19h0c-.15-.31-.34-.65-.53-1a3.4,3.4,0,0,0-.86-1l-.13-.08ZM8.43,68.37a.1.1,0,0,0-.07,0,4.07,4.07,0,0,0-.71,1.31,15.32,15.32,0,0,0-.53,1.62c.06.08.11.16.16.24a15.93,15.93,0,0,1,.57-1.78,4.46,4.46,0,0,1,.66-1.24.11.11,0,0,0-.07-.19ZM53.25,81.54l-.06,0c-6.81,2.2-13.64,4.48-19.1,2.86l-.18,0,0,.18,1.93,7.18.24,0-1.91-7.11c5.51,1.55,12.27-.71,19-2.88A17.14,17.14,0,0,0,63.88,87l-5.09,4.5.47-.13L64.2,87l.18-.16-.24,0A17,17,0,0,1,53.3,81.59Z"/><g class="cls-5"><path id="path21985-2" data-name="path21985" class="cls-13" d="M93.44,36.79C98.72,61.9,82.3,86.61,56.77,92S6.27,81.34,1,56.22,12.12,6.4,37.65,1,88.16,11.68,93.44,36.79Z"/></g></g></g></svg>