<?xml version="1.0" encoding="UTF-8"?>
<svg viewBox="0 0 130 300" xmlns="http://www.w3.org/2000/svg" xmlns:xlink="http://www.w3.org/1999/xlink">
 <defs>
  <linearGradient id="d">
   <stop stop-color="#42743f" offset="0"/>
   <stop stop-color="#00a236" offset=".5"/>
   <stop stop-color="#42743f" offset="1"/>
  </linearGradient>
  <linearGradient id="b">
   <stop stop-color="#ffdf00" offset="0"/>
   <stop stop-color="#dda327" offset="1"/>
  </linearGradient>
  <linearGradient id="a">
   <stop stop-color="#ffe200" offset="0"/>
   <stop stop-color="#a28231" offset="1"/>
  </linearGradient>
  <linearGradient id="c">
   <stop stop-color="#fff800" offset="0"/>
   <stop stop-color="#f6b52b" offset="1"/>
  </linearGradient>
  <linearGradient id="ai" x1="27.194" x2="83.648" y1="134.51" y2="88.079" gradientUnits="userSpaceOnUse" xlink:href="#b"/>
  <linearGradient id="aj" x1="47.652" x2="64.574" y1="144.44" y2="125.48" gradientUnits="userSpaceOnUse" xlink:href="#a"/>
  <linearGradient id="al" x1="39.818" x2="71.884" y1="195.4" y2="213.26" gradientUnits="userSpaceOnUse" xlink:href="#b"/>
  <linearGradient id="n" x1="4.755" x2="136.6" y1="126.57" y2="89.699" gradientUnits="userSpaceOnUse" xlink:href="#a"/>
  <linearGradient id="z" x1="43.784" x2="101.94" y1="230.02" y2="264.94" gradientUnits="userSpaceOnUse" xlink:href="#c"/>
  <linearGradient id="t" x1="-50.628" x2="85.824" y1="254.96" y2="256.64" gradientUnits="userSpaceOnUse" xlink:href="#d"/>
  <linearGradient id="s" x1="-54.873" x2="101.22" y1="231.35" y2="232.67" gradientUnits="userSpaceOnUse" xlink:href="#d"/>
  <linearGradient id="o" x1="35.455" x2="102.88" y1="181.48" y2="206.18" gradientUnits="userSpaceOnUse" xlink:href="#c"/>
  <linearGradient id="am" x1="67.443" x2="92.465" y1="229.61" y2="240.67" gradientUnits="userSpaceOnUse" xlink:href="#a"/>
  <linearGradient id="ak" x1="84.613" x2="108.24" y1="240.99" y2="252.52" gradientUnits="userSpaceOnUse" xlink:href="#a"/>
  <linearGradient id="ae" x1="83.339" x2="89.966" gradientUnits="userSpaceOnUse" xlink:href="#b"/>
  <linearGradient id="af" x1="77.735" x2="85.631" y1="100.72" y2="100.22" gradientUnits="userSpaceOnUse" xlink:href="#b"/>
  <linearGradient id="ag" x1="82.655" x2="90.681" gradientUnits="userSpaceOnUse" xlink:href="#b"/>
  <linearGradient id="ah" x1="81.828" x2="88.475" gradientUnits="userSpaceOnUse" xlink:href="#b"/>
  <linearGradient id="ad" x1="29.271" x2="23.463" y1="31.703" y2="30.756" gradientUnits="userSpaceOnUse" xlink:href="#a"/>
  <linearGradient id="ac" x1="31.062" x2="17.055" y1="30.352" y2="26.045" gradientTransform="matrix(1.01 .074508 -.15935 1.1377 10.1 -4.4052)" gradientUnits="userSpaceOnUse" xlink:href="#a"/>
  <linearGradient id="ab" x1="56.818" x2="69.697" y1="57.908" y2="62.832" gradientUnits="userSpaceOnUse" xlink:href="#a"/>
  <linearGradient id="aa" x1="49.647" x2="108.85" y1="23.899" y2="30.674" gradientTransform="matrix(.99194 -.12669 .12669 .99194 -5.9504 14.825)" gradientUnits="userSpaceOnUse" xlink:href="#a"/>
  <linearGradient id="x" x1="75.606" x2="82.464" y1="46.212" y2="54.229" gradientTransform="matrix(-1.0098 .061475 .15372 .43882 189.83 4.1216)" gradientUnits="userSpaceOnUse" xlink:href="#a"/>
  <linearGradient id="y" x1="78.713" x2="104.8" y1="53.581" y2="54.028" gradientTransform="matrix(.8912 -.50717 .45855 1.0084 -15.054 52.182)" gradientUnits="userSpaceOnUse" xlink:href="#a"/>
  <linearGradient id="w" x1="65.383" x2="88.834" y1="60.165" y2="67.003" gradientUnits="userSpaceOnUse" xlink:href="#a"/>
  <linearGradient id="v" x1="75.606" x2="101.44" y1="46.212" y2="47.462" gradientTransform="matrix(.60192 -.38063 .32285 .78891 22.614 48.084)" gradientUnits="userSpaceOnUse" xlink:href="#a"/>
  <linearGradient id="u" x1="47.144" x2="88.131" y1="38.362" y2="53.842" gradientUnits="userSpaceOnUse" xlink:href="#a"/>
  <linearGradient id="r" x1="78.564" x2="96.305" y1="61.585" y2="60.331" gradientTransform="matrix(1.0587 .21958 -.23829 .9756 6.4302 -16.953)" gradientUnits="userSpaceOnUse" xlink:href="#a"/>
  <linearGradient id="q" x1="123.29" x2="144.79" y1="59.198" y2="65.96" gradientTransform="matrix(.62553 -.25796 .061892 .611 3.6411 65.774)" gradientUnits="userSpaceOnUse" xlink:href="#a"/>
  <linearGradient id="p" x1="95.419" x2="136.95" y1="48.235" y2="57.334" gradientTransform="matrix(.77966 -.024191 .022374 .6286 -4.2769 30.862)" gradientUnits="userSpaceOnUse" xlink:href="#a"/>
  <radialGradient id="l" cx="281.5" cy="33.102" r="55.72" gradientTransform="matrix(1.3461 -.028836 .027822 1.3053 -98.464 -3.2084)" gradientUnits="userSpaceOnUse" xlink:href="#c"/>
  <radialGradient id="m" cx="33.012" cy="152.44" r="19.643" gradientTransform="matrix(.94607 -.32397 1.7039 4.9759 -257.77 -589.23)" gradientUnits="userSpaceOnUse" xlink:href="#c"/>
  <radialGradient id="f" cx="59.344" cy="213.48" r="26.542" gradientTransform="matrix(.98833 .79286 -1.8623 2.3215 392.52 -319.23)" gradientUnits="userSpaceOnUse" xlink:href="#a"/>
  <radialGradient id="k" cx="85.357" cy="117.94" r="36.071" gradientTransform="matrix(.78724 .028145 -.071462 1.9988 23.555 -112.15)" gradientUnits="userSpaceOnUse" xlink:href="#b"/>
  <radialGradient id="j" cx="88.926" cy="100.77" r="7.5" gradientTransform="matrix(1.0527 2.8375 -1.0692 .39668 99.983 -190.15)" gradientUnits="userSpaceOnUse" xlink:href="#b"/>
  <radialGradient id="i" cx="44.473" cy="36.657" r="44.607" gradientTransform="matrix(1.1499 0 0 .97575 -9.7234 1.2768)" gradientUnits="userSpaceOnUse" xlink:href="#a"/>
  <radialGradient id="h" cx="40.15" cy="79.016" r="1.6415" gradientTransform="matrix(1 8.6154 -3.2092 .3725 250.55 -305.31)" gradientUnits="userSpaceOnUse" xlink:href="#a"/>
  <radialGradient id="e" cx="52.154" cy="25.557" r="1.9516" gradientTransform="matrix(-3.9512 -.99131 3.4037 -10.967 167.31 358.99)" gradientUnits="userSpaceOnUse" xlink:href="#c"/>
  <radialGradient id="g" cx="84.989" cy="146.39" r="14.166" gradientTransform="matrix(-2.2904 -.66766 1.5534 -5.3287 47.79 980.13)" gradientUnits="userSpaceOnUse" xlink:href="#b"/>
 </defs>
 <path transform="matrix(.96795 0 0 .96552 -231.78 10.111)" d="m361.71 40.323a55.714 51.786 0 1 1 -0.49575 -2.9664" fill="url(#l)"/>
 <path d="m60.884 160.46s17.208 8.5863 22.764 1.0102 5.0328-10.004-0.54098-31.315c-11.645-26.489-24.445-54.179-24.445-54.179s-2.1641 20.964-14.628 20.832c-7.918 0.11992-20.924-10.914-25.685-16.803-5.27-10.178-7.2586-23.887-7.2586-23.887s-2.014 7.0647-1.185 25.571c0.52039 5.5585 12.95 23.1 12.95 23.1l23.887 10.214 14.142 45.457z" fill="url(#ai)" fill-rule="evenodd"/>
 <path d="m39.65 210.33 3.2034-23.505-15.714-34.286-6.8507-51.393s16.828 37.511 20.4 46.082 20.201 28.971 20.201 28.971-2.7679 14.286-8.0357 23.482c-3.7526 13.742-13.203 10.647-13.203 10.647z" fill="url(#m)" fill-rule="evenodd"/>
 <path d="m20.213 101.02s12.995 36.422 23.896 53.8 14.548 16.381 14.548 16.381 11.786-9.9107 11.607-18.125c0.10764-1.3132-0.5199-8.8231-3.1033-13.48-2.8571-6.6072-5.2002-9.7348-9.486-15.985-2.4107-3.3036-7.5-8.125-10.179-10-4.6429-3.3929-5.3482-3.5146-11.786-6.4286s-15.498-6.1633-15.498-6.1633z" fill="url(#aj)" fill-rule="evenodd"/>
 <path d="m37.139 241.47 19.286-36.429 8.5714-25 4.1703-21.239s-9.1576-7.6632-14.438-8.4037c-3.7653 0.26962 3.0781 32.5-1.2076 47.679-6.6071 14.643-13.86 12.091-13.86 12.091l-2.5217 31.302z" fill="url(#al)" fill-rule="evenodd"/>
 <path d="m86.425 191.82s12.321-31.607 16.429-45.714c0.57161-5.7734 0.22189-8.3696 0.75761-15.512 2.6786-12.5 5.9613-17.798 7.5576-31.331s2.4731-22.8 2.4731-22.8-9.0025 9.7321-18.645 13.929-29.434 5.3878-29.434 5.3878l6.4712 23.324 14.391 72.717z" fill="url(#n)" fill-rule="evenodd"/>
 <path d="m35.087 244.45 47.194-79.47 5.5475 25.276-0.92519 36.402-51.816 17.792z" fill="url(#f)" fill-rule="evenodd"/>
 <path d="m13.985 293.17c0.98214 0.95578 8.2143 1.3759 31.607 4.3301 16.964 1.2164 21.712 1.1906 39.821-0.17857 11.62-1.4036 15.214-1.7878 32.26-4.2266-3.9286-18.768-30.832-66.637-30.832-66.637l-51.429 17.378s-20.804 33.173-21.429 49.334z" fill="url(#z)" fill-rule="evenodd"/>
 <path d="m35.455 243.91s19.336-30.415 30.289-47.56c9.1675-18.395 10.756-21.556 10.756-21.556l1.2474 25.168-35.83 41.794s43.286-34.058 45.606-38.821c0.0523-1.3258 1.0701-42.793 1.0701-42.793l-19.549-1.5414s-5.6359 12.634-14.033 33.961c-0.89739 6.5061-19.556 51.349-19.556 51.349z" fill="url(#o)" fill-rule="evenodd"/>
 <path d="m14.356 293.2c4.2857-1.4286 53.393-60.249 53.393-60.249s17.944-7.0333 19.145-6.4823c1.6626 2.7516 2.1145 5.6326-0.63835 12.415-3.9092 9.6311-39.406 50.953-49.471 57.639-12.085-0.63692-22.428-3.3226-22.428-3.3226z" fill="url(#am)" fill-rule="evenodd"/>
 <path d="m54.077 298.15c4.4669-3.6095 39.873-55.382 39.532-58.871 4.5888 8.1964 10.806 20.472 15.791 31.573 3.5159 7.8296 5.6436 13.06 8.1521 22.151-5.1083 1.0266-32.367 5.9483-63.475 5.1462z" fill="url(#ak)" fill-rule="evenodd"/>
 <path d="m69.547 158.5 3.8406-29.059 24.089 5.7452-8.902 25.064-19.027-1.7511z" fill="url(#g)" fill-rule="evenodd"/>
 <path d="m70.032 155.33s4.7317-20.295 3.5228-25.655c1.6912 0.9167 11.882 4.845 23.829 5.5484 8.465-8.2251 13.867-36.01 13.867-36.01s2.4009-18.58 3.6211-25.771c0.52574-1.0037 0.75007-0.85576 1.5123-2.9924 1.7111-3.9988 2.1048-5.3988-1.2138-7.8658-2.7563 0.46543-1.8395 5.9779-2.8648 6.9172-1.0514-0.3546-0.83211-2.5295-1.4608-2.7131-1.083 1.2025-0.5408 2.4365-0.30376 4.2557 0.18868 1.448 0.59912 1.535 1.2148 2.6446-1.8038 7.5617-8.3622 27.668-8.3622 27.668s-3.676 9.291-6.8903 14.291-7.1122-0.59435-7.1122-0.59435l0.26151-7.8534-6.4159 0.05492s-1e-5 -0.91189-0.98215 7.3024c-1.773 3.9143-5.2449 3.9283-8.0574-1.9199-2.0549-5.3431-4.375-14.138-4.375-14.138l-7.5-24.482s2.5-4.8521 0.35715-9.3164c-2.1429 0.53572-0.53572 3.2296-1.4286 4.3903-1.25-1.5179-1.0714-6.1454-3.5714-6.6811-2.3214 1.4286-2.3214 2.8852-1.7857 5.8316 1.4286 4.375 2.6786 7.6352 2.6786 7.6352l2.6786 25.48 4.4643 28.393 4.3164 25.581z" fill="url(#k)" fill-rule="evenodd"/>
 <path d="m80.895 109.57c2.5 0.75893 2.9911 0.75893 6.0268 1.2054 2.9464-0.05865 2.9911 0.02298 5.4018-0.49107 1.6071-1.9643 1.6964-4.1071 1.0714-7.5-1.2054-3.6607-2.176-4.9196-3.1926-6.1346-1.1939-1.2277-1.9968-1.8434-3.1467-2.6154-0.99205-0.55103-1.2338-0.32558-2.1158-0.40945-1.0083-0.02074-1.6342-0.00224-2.7503 0.16325-0.98214 0.38871-1.3393 0.45409-2.4107 1.3023-1.1161 1.3839-1.25 1.801-1.5179 3.8546-0.34631 2.5893-0.26786 3.6607 0.13393 6.3393 0.75893 2.3214 1.1148 2.8202 2.5 4.2857z" fill="url(#j)" fill-rule="evenodd"/>
 <path d="m86.966 105.28h2.5" fill="none" stroke="url(#ae)"/>
 <path d="m82.732 100.22h2.3991" fill="none" stroke="url(#af)"/>
 <path d="m88.54 100.09h1.6415" fill="none" stroke="url(#ag)"/>
 <path d="m87.909 101.99c0.16362 0 0.09147 1.2627-1.0102 1.2627" fill="none" stroke="url(#ah)"/>
 <path d="m32.738 28.848 1.3598-2.1572 4.601 1.1075 2.4439 1.0491 2.8814-1.0742-1.4163-1.9118 0.64937-3.4112-2.4544-0.59988-0.93922 1.439-1.4307 0.08677-0.54892-1.4764 2.2176-0.74915-0.75761-1.5547-2.3282 0.66027-2.1038 1.8863-2.1737 1.1075-1.0519 1.3995s1.5296 1.6967 0.89847 2.0782-3.4228-0.55235-3.4228-0.55235l-0.16803 2.0598-1.9494 0.28675-1.4307 1.6126-0.91206-2.828 1.2345-2.3755 2.9449-1.3311-2.5817 0.11569-2.4457-0.94002 2.0126-2.2167 3.2956-2.8386 3.9269-2.8675s1.063-0.99773 5.2585-3.0622c4.2462-2.0894 5.6426-2.8213 10.917-4.3932 5.3319-1.5891 5.2397-1.3035 9.8295-1.8126s4.5824-0.38548 9.3334-0.17897 5.4921 0.26241 9.8941 1.0496 5.0727 1.2802 8.4914 2.9421c1.077 0.52355 1.3841 0.50695 3.9052 2.0993-2.4034-0.45949 6.9237 5.7881 7.6621 6.748-2.8759-0.07958-5.5214-3.4032-7.9497-4.0313-2.5468-0.65874 4.4579 5.5756 5.4503 8.3845-0.91327 2.3625 0.05084 6.1304 0.05084 6.1304l-6.0537 4.1735 3.2267 1.0708 1.1636 5.4218-1.1782 4.6353s-1.7223 1.1906-3.5175 3.0844c-3.3104 1.2624-6.5656 5.6844-7.8098 4.1346-0.86543 0.84926-2.8711 5.548 1.6386 9.3552-0.49026 1.4857 1.8932 2.1012-0.32461 2.0113l-3.6075-4.4373-0.09579-6.5875-3.857-2.7991-1.7532-4.5485-7.3634 4.8984-2.3981 2.9042-2.1602 6.1427-2.7546 3.4524-2.8556-15.998h-2.4544l-1.7532-1.7494v-2.0993l-4.2076-0.34988h-1.7532v-2.0993l-3.5064-0.34988-2.4544-2.7991h-1.7532l1.4025 5.2483 2.1038-0.69977 2.8051 2.7991 2.8051 0.34988-2.1038 3.149-3.5064 1.3995-2.4544 2.0993-2.8051 1.7494-3.857-4.5485-0.35063-4.1986v-2.0993l-1.7532-2.0993-1.4025-2.0993-1.0519 2.7991v2.0993l1.7532 1.3995 0.70127 2.7991v4.1986l1.4026 3.4988 3.1557 1.3995 3.857-1.3995-2.4544 5.2483-1.0519 3.4988-4.2076 2.0993-0.25254 6.2217 2.4962 2.7412-0.06993 5.4796-1.7009 1.4719 1.2803 9.2772-2.1038 1.3995-2.4544-1.3995-3.857-3.8487-2.4544-3.4988-1.5681-1.928-1.6071-3.5061-2.7791-5.0167-2.2954-6.6384-0.5162-5.3034-2.5502-4.1238 0.44643-7.5697 1.224-5.8442 2.1866-6.1723 2.2759-4.6305 1.7315-2.5176 2.0492 2.1677 0.43516 2.8492 1.2104 1.2451c0.81103 0.71905 0.66589 0.21239 2.0173 0.92696l2.0301 0.30904 1.6704-1.1317 2.4544-1.3995 3.5064 0.34988 1.0519-0.34988 2.1038-1.0496 2.1038-1.0496-4.2076-0.69977-1.7532-1.0496-0.70128-1.7494z" fill="url(#i)" fill-rule="evenodd"/>
 <path d="m38.382 86.95-1.2627-6.0609 0.50508-3.283 2.1542-1.6058 0.62369 5.6464v4.5457l-2.0203 0.75761z" fill="url(#h)" fill-rule="evenodd"/>
 <path d="m24.97801,31.26072 1.95717.75761 1.38896.12627-.25254.63135-1.89404-.1894-1.57836-.75761 .37881-.56821z" fill="url(#ad)" fill-rule="evenodd"/>
 <path d="m32.37172,31.6178 1.8561,1.00775 1.38279.24714-.35568.69945-1.88288-.3566-1.47349-.97952 .47315-.61822z" fill="url(#ac)" fill-rule="evenodd"/>
 <path d="m63.384 63.969-0.75761-3.283 0.25254-1.0102 1.2627-1.7678 2.2728 3.283-0.75761 3.5355-2.2728-0.75762z" fill="url(#ab)" fill-rule="evenodd"/>
 <path d="m98.425 40.674 1.0936-1.5314 0.47787-2.6156 5.1624-3.8468 0.44935-3.543-2.475-3.1939-1.9302-1.5471 2.4694-2.7046-3.7625-1.5572 0.98516 4.4719 2.7169 6.0777-1.7765 2.3335-4.227 1.7383 3.262 0.96818-1.7952 0.58905-0.6503 4.361z" fill="url(#aa)" fill-rule="evenodd"/>
 <path d="m96.682 32.988-0.25587-2.0217-0.57195-2.2857-1.2303 0.5845-1.3097 1.3349 3.3678 2.388z" fill="url(#x)" fill-rule="evenodd"/>
 <path d="m100.58 58.353s-0.86372-2.1255-0.51601-3.2511c2.1334 0.57083 1.9826 1.8035 1.9961-0.80487 0.10281-0.73341-1.5849-2.1288-1.5849-2.1288l-0.85975 0.5716-0.56452-2.044c3.0418 1.5003 1.8769-0.36468 2.8154-0.54702l-0.12997 2.1072 0.48493 1.444 0.84438 1.6498 0.90713 1.8412-3.3928 1.162z" fill="url(#y)" fill-rule="evenodd"/>
 <path d="m80.061 62.675 2.6594 2.7668 2.9855 1.6739 0.7368 2.5818 2.6668 0.53232 1.7123 1.1719 2.8072-0.78398 0.47915 1.8397 1.9706 0.37155 2.7885 1.7533 2.9386-1.1574 2.4882 0.13574 0.98649 1.6644 3.5744-0.71203-2.8703 1.8248-1.7499-2.1296-2.962-0.36142-1.9026 1.2993-2.8066-1.6031-3.7314-0.22086-2.0571-0.79383-4.2811-2.5932-3.7778-2.5822-2.6604-2.342 0.00532-2.336z" fill="url(#w)" fill-rule="evenodd"/>
 <path d="m98.958 50.425-1.4159-1.904-0.356-1.9656 0.0712-2.8037 1.4935 0.42005-0.31943 2.2937 1.4964 3.3583-0.96966 0.60123z" fill="url(#v)" fill-rule="evenodd"/>
 <path d="m81.854 53.758c1.7832 2.9092-0.06706 0.47756 1.2054 1.9801 1.0524 1.1977 1.6369 3.362 4.0738 0.87329l0.99176-1.7633-1.8306-1.623s-1.1855-0.88942-0.7939-1.8469 3.5598-2.7405 3.5598-2.7405l0.92857 1.2046-0.69142 2.0671 2.2477 1.5479 0.60176-2.4114-0.8389-0.8603-1.5722-2.4956 2.5067-3.3602 1.2454-1.1204-8.1737 2.8486-5.1449 2.6737 1.6848 5.0264z" fill="url(#u)" fill-rule="evenodd"/>
 <path d="m90.626 67.958-0.1758-2.9733-0.18374-1.7705 5.2367-1.3505 1.5862 0.25301 0.49907-1.5875 4.0469 1.2568-0.94027 1.8135-1.898-0.10938-0.72771 1.6708 0.5705 1.2266-1.3066 3.1961-6.7072-1.6256z" fill="url(#r)" fill-rule="evenodd"/>
 <path d="m100.08 68.97 0.21357 2.668 0.88063-1.1299-0.33972-2.2654 2.3622 3.0289 2.3184 0.20961-1.6205-2.1632-2.4542-1.6128 1.7363-0.45542 0.28386-0.87432-2.1734 0.31304-1.3353 0.81645 0.12811 1.4652z" fill="url(#q)" fill-rule="evenodd"/>
 <path d="m110.83 66.795c-0.06395 0.11812-0.43644 0.99722-0.6226 2.0385-0.80488 0.6309-1.5972 1.0234-1.5972 1.0234l-1.3449-3.305-2.2756-0.45766 2.6085-1.0851 2.692 1.7992 3.0773-2.2083s-0.26492 3.9774-0.98208 4.8594c-0.50623 0.78817-0.96424-1.4058-1.0428-1.7067-0.17989-0.69049-0.30307-0.94128-0.51266-0.95764z" fill="url(#p)" fill-rule="evenodd"/>
 <path d="m48.862 31.136-1.9162-0.5182-0.40625-1.3231 1.1616-0.83241-1.4829-3.2145 1.1099-2.3987 2.7338-0.08-1.365 2.2462-0.66725 0.90704 0.42161 1.7636 0.72913-0.42143 0.68203 1.8444-1.0003 2.0271z" fill="url(#e)" fill-rule="evenodd"/>
 <path d="m30.605 252.27c-1.4999 0.12765-6.3426 9.7076-5.9644 10.815 40.015 4.0472 45.266 4.2425 81.717 0.85206 1.0306-0.83815-5.3491-13.668-6.2066-11.773-17.845 3.7803-40.59 3.3872-69.546 0.1058z" fill="url(#s)" fill-rule="evenodd"/>
 <path d="m17.928 277.96c-1.4368-0.25114-4.4536 11.511-3.4918 12.161 45.072 4.365 51.911 5.9967 102.28-1.1194 1.1568-0.58561-2.8976-11.805-4.3125-11.077-36.219 4.1266-58.79 3.3281-94.476 0.03488z" fill="url(#t)" fill-rule="evenodd"/>
</svg>
